<svg width="17" height="17" viewBox="0 0 17 17" fill="none" xmlns="http://www.w3.org/2000/svg">
<path d="M14 1C14 2.45455 13 3 12 3" stroke="#A4A8B4" stroke-width="2" stroke-linecap="round"/>
<path d="M12 3C13.4545 3 14 4 14 5" stroke="#A4A8B4" stroke-width="2" stroke-linecap="round"/>
<path d="M14 1C14 2.45455 15 3 16 3" stroke="#A4A8B4" stroke-width="2" stroke-linecap="round"/>
<path d="M16 3C14.5455 3 14 4 14 5" stroke="#A4A8B4" stroke-width="2" stroke-linecap="round"/>
<path d="M6.25 5.5C6.25 9.5 3.75 11 1.25 11" stroke="#A4A8B4" stroke-width="2" stroke-linecap="round"/>
<path d="M6.5 5.5C6.5 9.5 9 11 11.5 11" stroke="#A4A8B4" stroke-width="2" stroke-linecap="round"/>
<path d="M1 11C5 11 6.5 13.5 6.5 16" stroke="#A4A8B4" stroke-width="2" stroke-linecap="round"/>
<path d="M11.75 11C7.75 11 6.25 13.5 6.25 16" stroke="#A4A8B4" stroke-width="2" stroke-linecap="round"/>
</svg>
