<svg width="24" height="24" viewBox="0 0 24 24" fill="none" xmlns="http://www.w3.org/2000/svg">
<path d="M12.0039 15.7554L15.7554 12.0039M15.7554 12.0039L12.0039 8.25243M15.7554 12.0039H2M2 6.06161V6.0018C2 4.60113 2 3.90026 2.27259 3.36528C2.51237 2.89469 2.89469 2.51237 3.36528 2.27259C3.90026 2 4.60112 2 6.0018 2H18.0065C19.4071 2 20.1065 2 20.6415 2.27259C21.1121 2.51237 21.4957 2.89469 21.7355 3.36528C22.0078 3.89974 22.0078 4.59975 22.0078 5.99769V18.0107C22.0078 19.4086 22.0078 20.1076 21.7355 20.6421C21.4957 21.1127 21.1121 21.4957 20.6415 21.7355C20.107 22.0078 19.408 22.0078 18.0101 22.0078H5.99769C4.59975 22.0078 3.89974 22.0078 3.36528 21.7355C2.89469 21.4957 2.51237 21.1123 2.27259 20.6417C2 20.1068 2 19.4069 2 18.0062V17.9437" stroke="#090909" stroke-width="2.50097" stroke-linecap="round" stroke-linejoin="round"/>
</svg>
