<svg width="21" height="26" viewBox="0 0 21 26" fill="none" xmlns="http://www.w3.org/2000/svg">
<path d="M2 22.6333V6.0018C2 4.60113 2 3.90026 2.27259 3.36528C2.51237 2.89469 2.89469 2.51237 3.36528 2.27259C3.90026 2 4.60112 2 6.0018 2H17.5063C18.2066 2 18.5573 2 18.8248 2.13629C19.0601 2.25618 19.2502 2.44734 19.37 2.68264C19.5063 2.95013 19.5068 3.30056 19.5068 4.0009V18.7566C19.5068 19.457 19.5063 19.8067 19.37 20.0742C19.2502 20.3094 19.0603 20.5012 18.825 20.6211C18.5578 20.7573 18.2075 20.7573 17.5086 20.7573H4.81359C3.25969 20.7573 2 22.017 2 23.5709C2 24.0889 2.4199 24.5088 2.93786 24.5088H16.2581C16.9571 24.5088 17.3073 24.5088 17.5745 24.3726C17.8098 24.2527 17.9997 24.061 18.1196 23.8257C18.2558 23.5582 18.2563 23.2083 18.2563 22.508V20.7573" stroke="#090909" stroke-width="2.50097" stroke-linecap="round" stroke-linejoin="round"/>
</svg>
