<svg width="23" height="23" viewBox="0 0 23 23" fill="none" xmlns="http://www.w3.org/2000/svg">
<path d="M12.0039 6.48431L2 16.4882V21.4901L7.00195 21.4901L17.0058 11.4862M12.0039 6.48431L15.5911 2.8971L15.5932 2.89497C16.087 2.40118 16.3344 2.15384 16.6195 2.0612C16.8706 1.9796 17.1412 1.9796 17.3923 2.0612C17.6772 2.15378 17.9243 2.40083 18.4174 2.89393L20.593 5.06952C21.0882 5.56473 21.3359 5.81245 21.4287 6.09797C21.5103 6.34913 21.5103 6.61966 21.4287 6.87081C21.336 7.15613 21.0886 7.40348 20.5941 7.89798L20.593 7.89905L17.0058 11.4862M12.0039 6.48431L17.0058 11.4862" stroke="black" stroke-width="2.50097" stroke-linecap="round" stroke-linejoin="round"/>
</svg>
