<svg width="24" height="24" viewBox="0 0 24 24" fill="none" xmlns="http://www.w3.org/2000/svg">
<path d="M13.0393 13.9394L10.6392 16.3388C10.6399 16.3667 10.6406 16.3945 10.6406 16.4223C10.6406 16.8164 10.5659 17.2089 10.4172 17.5766C10.2671 17.9429 10.0459 18.2871 9.74339 18.5874L8.16502 20.168C7.86253 20.4698 7.51973 20.6909 7.15209 20.8403C6.7837 20.9898 6.39183 21.0645 5.99855 21.0645C5.60597 21.0645 5.21339 20.9897 4.8457 20.8418C4.47802 20.6909 4.13527 20.4697 3.83203 20.168C3.53025 19.8662 3.30909 19.5234 3.15966 19.1558C3.01022 18.7881 2.93555 18.3955 2.93555 18.0015C2.93555 17.6089 3.01027 17.2163 3.15966 16.8486C3.30905 16.4809 3.53025 16.1382 3.83203 15.8349L5.41261 14.2558C5.71439 13.9555 6.05639 13.7329 6.42483 13.5834C6.79177 13.434 7.18509 13.3593 7.57767 13.3593C7.60552 13.3593 7.63336 13.3608 7.66045 13.3623L10.0606 10.9607C9.98588 10.9263 9.91045 10.894 9.83353 10.8633C9.11062 10.5703 8.3438 10.4238 7.57767 10.4238C6.81155 10.4238 6.04397 10.5703 5.32181 10.8633C4.59891 11.1562 3.91997 11.5987 3.33623 12.1802L1.75711 13.7608C1.17408 14.3423 0.732469 15.022 0.4395 15.7456C0.146531 16.4693 0 17.2353 0 18.0014C0 18.7675 0.146484 19.5351 0.439453 20.2587C0.732422 20.9809 1.17408 21.6606 1.75706 22.2421C2.33934 22.8266 3.01903 23.269 3.74194 23.5605C4.46559 23.8549 5.23242 24 5.99855 24C6.76538 24 7.53225 23.8549 8.25516 23.5605C8.97806 23.269 9.65775 22.8266 10.24 22.2421L11.8199 20.6645C12.4021 20.08 12.8438 19.4018 13.1375 18.6796C13.4312 17.9545 13.5762 17.1884 13.5769 16.4223C13.5762 15.6577 13.4312 14.8901 13.1375 14.165C13.106 14.0903 13.073 14.0141 13.0393 13.9394Z" fill="#A4A8B4"/>
<path d="M23.5605 3.74269C23.2676 3.01903 22.8259 2.33934 22.2429 1.75711C21.6607 1.17483 20.981 0.732469 20.2574 0.4395C19.5344 0.146484 18.7676 0 18.0015 0C17.2353 0 16.4678 0.146484 15.7448 0.439453C15.0219 0.732422 14.3422 1.17483 13.76 1.75706L12.1801 3.33689C11.5979 3.91847 11.1562 4.59816 10.8625 5.32177C10.5688 6.04392 10.4238 6.8115 10.4238 7.57837C10.4238 8.3445 10.5689 9.11133 10.8625 9.83498C10.894 9.91116 10.9262 9.98588 10.9607 10.0613L13.3608 7.66116C13.3601 7.63406 13.3594 7.60697 13.3594 7.57837C13.3594 7.18505 13.4341 6.79177 13.5835 6.42483C13.7329 6.05714 13.9541 5.71439 14.2566 5.41116L15.8349 3.83203C16.1374 3.53175 16.4802 3.3098 16.8486 3.15966C17.2148 3.01172 17.6081 2.93555 18.0015 2.93555C18.3955 2.93555 18.7866 3.01172 19.1558 3.15966C19.522 3.3098 19.8655 3.53175 20.168 3.83203C20.4698 4.13527 20.6909 4.47802 20.8403 4.8457C20.9883 5.21339 21.0645 5.60597 21.0645 5.99855C21.0645 6.39188 20.9883 6.7837 20.8403 7.15284C20.6909 7.52053 20.4698 7.86328 20.168 8.16506L18.5888 9.74419C18.2871 10.046 17.9436 10.2671 17.5752 10.4166C17.2082 10.566 16.8157 10.6407 16.4223 10.6407C16.3945 10.6407 16.3666 10.6399 16.3395 10.6392L13.9394 13.0401C14.0141 13.0738 14.0895 13.1068 14.165 13.1368C14.8894 13.4312 15.6562 13.5777 16.4223 13.5777C17.1884 13.5777 17.956 13.4312 18.6782 13.1368C19.4011 12.8438 20.08 12.4022 20.6638 11.8199L22.2429 10.2401C22.8259 9.6578 23.2675 8.97811 23.5605 8.2545C23.8535 7.53234 24 6.76477 24 5.99864C24 5.23252 23.8535 4.46484 23.5605 3.74269Z" fill="#A4A8B4"/>
<path d="M7.51014 16.4897C8.08361 17.064 9.01309 17.064 9.58581 16.4897L16.4896 9.58593C17.0624 9.01317 17.0638 8.08448 16.4896 7.51026C15.9161 6.9375 14.9867 6.9375 14.4139 7.51026L7.51014 14.4155C6.93737 14.9883 6.93737 15.917 7.51014 16.4897Z" fill="#A4A8B4"/>
</svg>
